<?xml version="1.0" standalone="no"?>
<!DOCTYPE svg PUBLIC "-//W3C//DTD SVG 20010904//EN"
 "http://www.w3.org/TR/2001/REC-SVG-20010904/DTD/svg10.dtd">
<svg version="1.0" xmlns="http://www.w3.org/2000/svg"
 width="550.000000pt" height="647.000000pt" viewBox="0 0 550.000000 647.000000"
 preserveAspectRatio="xMidYMid meet">

<g transform="translate(0.000000,647.000000) scale(0.100000,-0.100000)"
fill="#000000" stroke="none">
<path d="M2635 6417 c-16 -8 -38 -24 -48 -35 -48 -53 -46 23 -47 -1992 l0
-1895 -662 662 c-586 585 -667 662 -700 668 -146 27 -239 -112 -159 -236 38
-58 1566 -1582 1608 -1603 49 -25 102 -20 154 13 24 16 396 381 826 812 588
590 783 791 788 814 4 17 8 35 10 42 8 25 -19 89 -49 119 -36 36 -86 50 -143
39 -34 -6 -115 -83 -700 -668 l-663 -661 -2 1916 -3 1917 -21 27 c-47 64 -126
89 -189 61z"/>
<path d="M192 2020 c-39 -9 -85 -50 -102 -89 -7 -19 -10 -173 -8 -511 l3 -485
32 -67 c55 -116 152 -205 273 -249 l65 -24 2240 0 c2169 0 2242 1 2295 19 77
26 129 58 185 113 60 59 88 104 117 185 23 62 23 68 23 533 0 452 -1 471 -20
503 -58 96 -191 100 -259 9 -20 -28 -21 -40 -26 -492 -5 -449 -6 -464 -26
-491 -11 -15 -33 -37 -48 -48 l-27 -21 -2212 0 -2212 0 -33 23 c-68 49 -66 38
-72 544 -5 441 -6 457 -26 484 -42 57 -97 78 -162 64z"/>
</g>
</svg>
