<svg width="55" height="70" viewBox="0 0 55 70" fill="none" xmlns="http://www.w3.org/2000/svg">
<path d="M27.4999 5.09998C22.9674 5.09998 18.5367 6.4489 14.7681 8.97617C10.9995 11.5034 8.0622 15.0956 6.32769 19.2983C4.59318 23.501 4.13935 28.1255 5.0236 32.5871C5.90784 37.0486 8.09045 41.1468 11.2954 44.3634C14.5004 47.58 18.5837 49.7706 23.0291 50.658C27.4745 51.5455 32.0823 51.09 36.2698 49.3492C40.4572 47.6084 44.0363 44.6604 46.5544 40.8781C49.0726 37.0958 50.4166 32.6489 50.4166 28.1C50.4166 25.0796 49.8238 22.0887 48.6722 19.2983C47.5205 16.5078 45.8325 13.9723 43.7045 11.8365C41.5764 9.70077 39.0501 8.0066 36.2698 6.85075C33.4894 5.69489 30.5094 5.09998 27.4999 5.09998ZM27.4999 46.5C23.8739 46.5 20.3294 45.4208 17.3145 43.399C14.2996 41.3772 11.9497 38.5035 10.5621 35.1413C9.17453 31.7792 8.81147 28.0796 9.51887 24.5103C10.2263 20.9411 11.9723 17.6625 14.5363 15.0892C17.1003 12.5159 20.367 10.7635 23.9233 10.0535C27.4796 9.34356 31.1658 9.70794 34.5158 11.1006C37.8658 12.4932 40.729 14.8516 42.7435 17.8775C44.758 20.9033 45.8333 24.4608 45.8333 28.1C45.8333 32.98 43.9017 37.6601 40.4636 41.1107C37.0254 44.5614 32.3622 46.5 27.4999 46.5Z" fill="black"/>
<path d="M29.7916 37.3H25.2083V41.9H29.7916V37.3Z" fill="black"/>
<path d="M27.5001 14.3C25.3728 14.3 23.3327 15.1481 21.8285 16.6578C20.3243 18.1674 19.4792 20.215 19.4792 22.35H24.0626C24.0626 21.6676 24.2642 21.0006 24.6419 20.4333C25.0196 19.8659 25.5565 19.4237 26.1846 19.1626C26.8127 18.9015 27.5039 18.8332 28.1707 18.9663C28.8375 19.0994 29.45 19.428 29.9308 19.9105C30.4115 20.393 30.7389 21.0077 30.8715 21.6769C31.0042 22.3462 30.9361 23.0398 30.6759 23.6702C30.4157 24.3007 29.9751 24.8395 29.4099 25.2186C28.8446 25.5977 28.18 25.8 27.5001 25.8C26.8923 25.8 26.3094 26.0423 25.8796 26.4736C25.4499 26.905 25.2084 27.49 25.2084 28.1V32.7H29.7917V30.0665C31.6397 29.5153 33.2281 28.3146 34.266 26.6842C35.304 25.0537 35.7221 23.1025 35.4438 21.188C35.1655 19.2734 34.2095 17.5234 32.7507 16.2585C31.2919 14.9936 29.4279 14.2983 27.5001 14.3Z" fill="black"/>
</svg>
