<svg width="40" height="39" viewBox="0 0 40 39" fill="none" xmlns="http://www.w3.org/2000/svg">
<path d="M1.68744 36.9097L1.68678 36.9091C0.919503 36.2186 0.5 35.2927 0.5 34.3388V30.1777C0.5 29.7356 0.915383 29.2906 1.53846 29.2906C2.16154 29.2906 2.57692 29.7356 2.57692 30.1777V34.3388C2.57692 34.8555 2.80418 35.3418 3.19288 35.6908C3.57826 36.0397 4.09209 36.2259 4.61538 36.2259H35.3846C35.9077 36.2259 36.4214 36.0398 36.8068 35.6912C37.1957 35.3421 37.4231 34.8556 37.4231 34.3388V34.3275V34.3162V34.3049V34.2935V34.2822V34.2708V34.2595V34.2481V34.2368V34.2254V34.214V34.2026V34.1912V34.1798V34.1684V34.157V34.1456V34.1342V34.1228V34.1114V34.0999V34.0885V34.0771V34.0656V34.0542V34.0427V34.0313V34.0198V34.0083V33.9969V33.9854V33.9739V33.9625V33.951V33.9395V33.928V33.9165V33.905V33.8935V33.882V33.8705V33.859V33.8475V33.836V33.8245V33.813V33.8015V33.79V33.7785V33.767V33.7555V33.7439V33.7324V33.7209V33.7094V33.6979V33.6863V33.6748V33.6633V33.6518V33.6403V33.6287V33.6172V33.6057V33.5942V33.5827V33.5711V33.5596V33.5481V33.5366V33.5251V33.5136V33.502V33.4905V33.479V33.4675V33.456V33.4445V33.433V33.4215V33.41V33.3985V33.387V33.3755V33.364V33.3525V33.3411V33.3296V33.3181V33.3066V33.2952V33.2837V33.2722V33.2608V33.2493V33.2379V33.2264V33.215V33.2035V33.1921V33.1807V33.1692V33.1578V33.1464V33.135V33.1236V33.1122V33.1008V33.0894V33.078V33.0666V33.0552V33.0439V33.0325V33.0212V33.0098V32.9985V32.9871V32.9758V32.9645V32.9531V32.9418V32.9305V32.9192V32.9079V32.8967V32.8854V32.8741V32.8629V32.8516V32.8404V32.8291V32.8179V32.8067V32.7955V32.7843V32.7731V32.7619V32.7507V32.7395V32.7284V32.7172V32.7061V32.6949V32.6838V32.6727V32.6616V32.6505V32.6394V32.6283V32.6173V32.6062V32.5952V32.5841V32.5731V32.5621V32.5511V32.5401V32.5291V32.5182V32.5072V32.4963V32.4853V32.4744V32.4635V32.4526V32.4417V32.4308V32.42V32.4091V32.3983V32.3875V32.3767V32.3659V32.3551V32.3443V32.3335V32.3228V32.312V32.3013V32.2906V32.2799V32.2692V32.2586V32.2479V32.2373V32.2267V32.216V32.2054V32.1949V32.1843V32.1737V32.1632V32.1527V32.1422V32.1317V32.1212V32.1107V32.1003V32.0899V32.0795V32.0691V32.0587V32.0483V32.038V32.0276V32.0173V32.007V31.9967V31.9864V31.9762V31.966V31.9557V31.9455V31.9354V31.9252V31.9151V31.9049V31.8948V31.8847V31.8746V31.8646V31.8545V31.8445V31.8345V31.8245V31.8146V31.8046V31.7947V31.7848V31.7749V31.765V31.7552V31.7453V31.7355V31.7257V31.716V31.7062V31.6965V31.6868V31.6771V31.6674V31.6578V31.6481V31.6385V31.6289V31.6194V31.6098V31.6003V31.5908V31.5813V31.5719V31.5624V31.553V31.5436V31.5342V31.5249V31.5155V31.5062V31.497V31.4877V31.4785V31.4692V31.46V31.4509V31.4417V31.4326V31.4235V31.4144V31.4054V31.3963V31.3873V31.3783V31.3694V31.3605V31.3515V31.3427V31.3338V31.325V31.3161V31.3074V31.2986V31.2899V31.2811V31.2725V31.2638V31.2552V31.2466V31.238V31.2294V31.2209V31.2124V31.2039V31.1954V31.187V31.1786V31.1702V31.1619V31.1536V31.1453V31.137V31.1288V31.1205V31.1124V31.1042V31.0961V31.088V31.0799V31.0718V31.0638V31.0558V31.0479V31.0399V31.032V31.0242V31.0163V31.0085V31.0007V30.9929V30.9852V30.9775V30.9698V30.9622V30.9546V30.947V30.9394V30.9319V30.9244V30.917V30.9095V30.9021V30.8948V30.8874V30.8801V30.8728V30.8656V30.8584V30.8512V30.844V30.8369V30.8298V30.8227V30.8157V30.8087V30.8018V30.7948V30.7879V30.7811V30.7742V30.7674V30.7606V30.7539V30.7472V30.7405V30.7339V30.7273V30.7207V30.7142V30.7077V30.7012V30.6948V30.6884V30.682V30.6757V30.6694V30.6631V30.6569V30.6507V30.6445V30.6384V30.6323V30.6262V30.6202V30.6142V30.6083V30.6024V30.5965V30.5907V30.5848V30.5791V30.5733V30.5676V30.562V30.5564V30.5508V30.5452V30.5397V30.5342V30.5288V30.5234V30.518V30.5127V30.5074V30.5021V30.4969V30.4917V30.4866V30.4815V30.4764V30.4714V30.4664V30.4614V30.4565V30.4517V30.4468V30.442V30.4373V30.4326V30.4279V30.4232V30.4186V30.4141V30.4096V30.4051V30.4006V30.3962V30.3919V30.3876V30.3833V30.3791V30.3749V30.3707V30.3666V30.3625V30.3585V30.3545V30.3505V30.3466V30.3428V30.3389V30.3351V30.3314V30.3277V30.324V30.3204V30.3168V30.3133V30.3098V30.3064V30.303V30.2996V30.2963V30.293V30.2898V30.2866V30.2835V30.2804V30.2773V30.2743V30.2713V30.2684V30.2655V30.2627V30.2599V30.2571V30.2544V30.2518V30.2492V30.2466V30.2441V30.2416V30.2391V30.2368V30.2344V30.2321V30.2299V30.2277V30.2255V30.2234V30.2213V30.2193V30.2173V30.2154V30.2135V30.2117V30.2099V30.2081V30.2065V30.2048V30.2032V30.2017V30.2002V30.1987V30.1973V30.1959V30.1946V30.1933V30.1921V30.191V30.1898V30.1888V30.1877V30.1868V30.1858V30.185V30.1841V30.1834V30.1826V30.182V30.1813V30.1808V30.1802V30.1797V30.1793V30.1789V30.1786V30.1783V30.1781V30.1779V30.1778V30.1777C37.4231 29.7356 37.8385 29.2906 38.4615 29.2906C39.0846 29.2906 39.5 29.7356 39.5 30.1777V30.1778V30.1779V30.1781V30.1783V30.1786V30.1789V30.1793V30.1797V30.1802V30.1808V30.1813V30.182V30.1826V30.1834V30.1841V30.185V30.1858V30.1868V30.1877V30.1888V30.1898V30.191V30.1921V30.1933V30.1946V30.1959V30.1973V30.1987V30.2002V30.2017V30.2032V30.2048V30.2065V30.2081V30.2099V30.2117V30.2135V30.2154V30.2173V30.2193V30.2213V30.2234V30.2255V30.2277V30.2299V30.2321V30.2344V30.2368V30.2391V30.2416V30.2441V30.2466V30.2492V30.2518V30.2544V30.2571V30.2599V30.2627V30.2655V30.2684V30.2713V30.2743V30.2773V30.2804V30.2835V30.2866V30.2898V30.293V30.2963V30.2996V30.303V30.3064V30.3098V30.3133V30.3168V30.3204V30.324V30.3277V30.3314V30.3351V30.3389V30.3428V30.3466V30.3505V30.3545V30.3585V30.3625V30.3666V30.3707V30.3749V30.3791V30.3833V30.3876V30.3919V30.3962V30.4006V30.4051V30.4096V30.4141V30.4186V30.4232V30.4279V30.4326V30.4373V30.442V30.4468V30.4517V30.4565V30.4614V30.4664V30.4714V30.4764V30.4815V30.4866V30.4917V30.4969V30.5021V30.5074V30.5127V30.518V30.5234V30.5288V30.5342V30.5397V30.5452V30.5508V30.5564V30.562V30.5676V30.5733V30.5791V30.5848V30.5907V30.5965V30.6024V30.6083V30.6142V30.6202V30.6262V30.6323V30.6384V30.6445V30.6507V30.6569V30.6631V30.6694V30.6757V30.682V30.6884V30.6948V30.7012V30.7077V30.7142V30.7207V30.7273V30.7339V30.7405V30.7472V30.7539V30.7606V30.7674V30.7742V30.7811V30.7879V30.7948V30.8018V30.8087V30.8157V30.8227V30.8298V30.8369V30.844V30.8512V30.8584V30.8656V30.8728V30.8801V30.8874V30.8948V30.9021V30.9095V30.917V30.9244V30.9319V30.9394V30.947V30.9546V30.9622V30.9698V30.9775V30.9852V30.9929V31.0007V31.0085V31.0163V31.0242V31.032V31.0399V31.0479V31.0558V31.0638V31.0718V31.0799V31.088V31.0961V31.1042V31.1124V31.1205V31.1288V31.137V31.1453V31.1536V31.1619V31.1702V31.1786V31.187V31.1954V31.2039V31.2124V31.2209V31.2294V31.238V31.2466V31.2552V31.2638V31.2725V31.2811V31.2899V31.2986V31.3074V31.3161V31.325V31.3338V31.3427V31.3515V31.3605V31.3694V31.3783V31.3873V31.3963V31.4054V31.4144V31.4235V31.4326V31.4417V31.4509V31.46V31.4692V31.4785V31.4877V31.497V31.5062V31.5155V31.5249V31.5342V31.5436V31.553V31.5624V31.5719V31.5813V31.5908V31.6003V31.6098V31.6194V31.6289V31.6385V31.6481V31.6578V31.6674V31.6771V31.6868V31.6965V31.7062V31.716V31.7257V31.7355V31.7453V31.7552V31.765V31.7749V31.7848V31.7947V31.8046V31.8146V31.8245V31.8345V31.8445V31.8545V31.8646V31.8746V31.8847V31.8948V31.9049V31.9151V31.9252V31.9354V31.9455V31.9557V31.966V31.9762V31.9864V31.9967V32.007V32.0173V32.0276V32.038V32.0483V32.0587V32.0691V32.0795V32.0899V32.1003V32.1107V32.1212V32.1317V32.1422V32.1527V32.1632V32.1737V32.1843V32.1949V32.2054V32.216V32.2267V32.2373V32.2479V32.2586V32.2692V32.2799V32.2906V32.3013V32.312V32.3228V32.3335V32.3443V32.3551V32.3659V32.3767V32.3875V32.3983V32.4091V32.42V32.4308V32.4417V32.4526V32.4635V32.4744V32.4853V32.4963V32.5072V32.5182V32.5291V32.5401V32.5511V32.5621V32.5731V32.5841V32.5952V32.6062V32.6173V32.6283V32.6394V32.6505V32.6616V32.6727V32.6838V32.6949V32.7061V32.7172V32.7284V32.7395V32.7507V32.7619V32.7731V32.7843V32.7955V32.8067V32.8179V32.8291V32.8404V32.8516V32.8629V32.8741V32.8854V32.8967V32.9079V32.9192V32.9305V32.9418V32.9531V32.9645V32.9758V32.9871V32.9985V33.0098V33.0212V33.0325V33.0439V33.0552V33.0666V33.078V33.0894V33.1008V33.1122V33.1236V33.135V33.1464V33.1578V33.1692V33.1807V33.1921V33.2035V33.215V33.2264V33.2379V33.2493V33.2608V33.2722V33.2837V33.2952V33.3066V33.3181V33.3296V33.3411V33.3525V33.364V33.3755V33.387V33.3985V33.41V33.4215V33.433V33.4445V33.456V33.4675V33.479V33.4905V33.502V33.5136V33.5251V33.5366V33.5481V33.5596V33.5711V33.5827V33.5942V33.6057V33.6172V33.6287V33.6403V33.6518V33.6633V33.6748V33.6863V33.6979V33.7094V33.7209V33.7324V33.7439V33.7555V33.767V33.7785V33.79V33.8015V33.813V33.8245V33.836V33.8475V33.859V33.8705V33.882V33.8935V33.905V33.9165V33.928V33.9395V33.951V33.9625V33.9739V33.9854V33.9969V34.0083V34.0198V34.0313V34.0427V34.0542V34.0656V34.0771V34.0885V34.0999V34.1114V34.1228V34.1342V34.1456V34.157V34.1684V34.1798V34.1912V34.2026V34.214V34.2254V34.2368V34.2481V34.2595V34.2708V34.2822V34.2935V34.3049V34.3162V34.3275V34.3388C39.5 35.2927 39.0805 36.2186 38.3132 36.9091L38.3126 36.9097C37.5449 37.603 36.4925 38 35.3846 38H35.3438H35.3027H35.2614H35.2198H35.1781H35.1361H35.0939H35.0515H35.0088H34.966H34.9229H34.8796H34.8361H34.7924H34.7484H34.7043H34.6599H34.6153H34.5705H34.5255H34.4803H34.4349H34.3893H34.3435H34.2974H34.2512H34.2047H34.1581H34.1113H34.0642H34.017H33.9695H33.9219H33.874H33.826H33.7777H33.7293H33.6807H33.6319H33.5828H33.5336H33.4842H33.4347H33.3849H33.3349H33.2848H33.2345H33.1839H33.1332H33.0824H33.0313H32.98H32.9286H32.877H32.8252H32.7732H32.7211H32.6688H32.6163H32.5636H32.5108H32.4578H32.4046H32.3512H32.2977H32.244H32.1901H32.1361H32.0819H32.0275H31.973H31.9183H31.8634H31.8084H31.7532H31.6979H31.6424H31.5867H31.5309H31.4749H31.4188H31.3625H31.3061H31.2495H31.1927H31.1358H31.0788H31.0216H30.9643H30.9068H30.8491H30.7913H30.7334H30.6753H30.6171H30.5587H30.5002H30.4416H30.3828H30.3239H30.2648H30.2056H30.1463H30.0868H30.0272H29.9675H29.9076H29.8476H29.7875H29.7272H29.6668H29.6063H29.5456H29.4848H29.4239H29.3629H29.3018H29.2405H29.1791H29.1176H29.0559H28.9942H28.9323H28.8703H28.8082H28.746H28.6836H28.6212H28.5586H28.4959H28.4331H28.3702H28.3072H28.2441H28.1808H28.1175H28.054H27.9905H27.9268H27.8631H27.7992H27.7352H27.6712H27.607H27.5427H27.4784H27.4139H27.3494H27.2847H27.22H27.1551H27.0902H27.0252H26.96H26.8948H26.8295H26.7641H26.6987H26.6331H26.5675H26.5017H26.4359H26.37H26.304H26.238H26.1718H26.1056H26.0393H25.9729H25.9065H25.8399H25.7733H25.7066H25.6399H25.573H25.5061H25.4392H25.3721H25.305H25.2378H25.1706H25.1033H25.0359H24.9685H24.9009H24.8334H24.7657H24.6981H24.6303H24.5625H24.4946H24.4267H24.3587H24.2907H24.2226H24.1544H24.0862H24.018H23.9496H23.8813H23.8129H23.7444H23.6759H23.6074H23.5388H23.4701H23.4014H23.3327H23.2639H23.1951H23.1263H23.0574H22.9884H22.9195H22.8505H22.7814H22.7123H22.6432H22.5741H22.5049H22.4357H22.3664H22.2972H22.2279H22.1585H22.0892H22.0198H21.9504H21.8809H21.8115H21.742H21.6725H21.603H21.5334H21.4638H21.3943H21.3246H21.255H21.1854H21.1157H21.0461H20.9764H20.9067H20.837H20.7673H20.6976H20.6278H20.5581H20.4884H20.4186H20.3488H20.2791H20.2093H20.1395H20.0698H20H19.9302H19.8605H19.7907H19.7209H19.6512H19.5814H19.5117H19.4419H19.3722H19.3024H19.2327H19.163H19.0933H19.0236H18.9539H18.8843H18.8146H18.745H18.6754H18.6057H18.5362H18.4666H18.397H18.3275H18.258H18.1885H18.1191H18.0496H17.9802H17.9108H17.8415H17.7721H17.7028H17.6336H17.5643H17.4951H17.4259H17.3568H17.2877H17.2186H17.1495H17.0805H17.0116H16.9426H16.8737H16.8049H16.7361H16.6673H16.5986H16.5299H16.4612H16.3926H16.3241H16.2556H16.1871H16.1187H16.0504H15.9821H15.9138H15.8456H15.7774H15.7093H15.6413H15.5733H15.5054H15.4375H15.3697H15.302H15.2343H15.1666H15.0991H15.0315H14.9641H14.8967H14.8294H14.7622H14.695H14.6279H14.5608H14.4939H14.427H14.3601H14.2934H14.2267H14.1601H14.0935H14.0271H13.9607H13.8944H13.8282H13.762H13.696H13.63H13.5641H13.4983H13.4325H13.3669H13.3013H13.2359H13.1705H13.1052H13.04H12.9748H12.9098H12.8449H12.78H12.7153H12.6506H12.5861H12.5216H12.4573H12.393H12.3288H12.2648H12.2008H12.1369H12.0732H12.0095H11.946H11.8825H11.8192H11.7559H11.6928H11.6298H11.5669H11.5041H11.4414H11.3788H11.3164H11.254H11.1918H11.1297H11.0677H11.0058H10.9441H10.8824H10.8209H10.7595H10.6982H10.6371H10.5761H10.5152H10.4544H10.3937H10.3332H10.2728H10.2125H10.1524H10.0924H10.0325H9.97279H9.91318H9.85371H9.79437H9.73518H9.67611H9.61719H9.5584H9.49976H9.44126H9.38289H9.32467H9.2666H9.20867H9.15088H9.09324H9.03575H8.9784H8.92121H8.86416H8.80726H8.75052H8.69393H8.63749H8.5812H8.52507H8.4691H8.41328H8.35762H8.30212H8.24678H8.1916H8.13658H8.08172H8.02702H7.97249H7.91813H7.86393H7.80989H7.75603H7.70233H7.6488H7.59544H7.54225H7.48923H7.43639H7.38372H7.33123H7.27891H7.22676H7.1748H7.12301H7.0714H7.01997H6.96872H6.91765H6.86677H6.81606H6.76555H6.71521H6.66507H6.61511H6.56534H6.51576H6.46636H6.41716H6.36815H6.31933H6.2707H6.22227H6.17403H6.12599H6.07815H6.0305H5.98305H5.9358H5.88875H5.8419H5.79526H5.74881H5.70257H5.65654H5.61071H5.56508H5.51967H5.47446H5.42946H5.38467H5.3401H5.29573H5.25158H5.20764H5.16391H5.1204H5.0771H5.03403H4.99117H4.94853H4.90611H4.86391H4.82193H4.78017H4.73864H4.69733H4.65624H4.61538C3.50753 38 2.45505 37.603 1.68744 36.9097ZM18.9615 4.01097V3.00997L18.1612 3.61121L11.4535 8.65037L11.4532 8.65065C11.0003 8.99156 10.3191 8.92767 9.95502 8.53339L9.95454 8.53287C9.61871 8.17021 9.66087 7.63765 10.0847 7.31948L10.085 7.3193L9.78459 6.9196L10.085 7.31926L10.0852 7.31914L10.0858 7.31868L10.0883 7.31681L10.0981 7.30943L10.1367 7.28041L10.2858 7.16841L10.8382 6.75326L12.6984 5.35526C14.1746 4.24599 15.9895 2.88223 17.3449 1.86417C18.8793 0.711943 21.1207 0.711943 22.6551 1.86417C24.0105 2.88223 25.8254 4.24599 27.3016 5.35526L29.1618 6.75326L29.7142 7.16841L29.8633 7.28041L29.9019 7.30943L29.9117 7.31681L29.9142 7.31868L29.9148 7.31914L29.915 7.31926L30.2154 6.9196L29.915 7.3193L29.9153 7.31948C30.3391 7.63765 30.3813 8.17021 30.0455 8.53287L30.045 8.53339C29.6809 8.92767 28.9997 8.99156 28.5468 8.65065L28.5465 8.65037L21.8388 3.61121L21.0385 3.00997V4.01097V30.1777C21.0385 30.6197 20.6231 31.0647 20 31.0647C19.3769 31.0647 18.9615 30.6197 18.9615 30.1777V4.01097Z" fill="black" stroke="black"/>
</svg>
